<svg 
                            version="1.1" id="layer" 
                            xmlns="http://www.w3.org/2000/svg" 
                            xmlns:xlink="http://www.w3.org/1999/xlink" x="0px" y="0px" viewBox="0 210 240 240" style="enable-background:new 0 0 652 652;" xml:space="preserve"
                        >
                        <style type="text/css">
                            .st0{fill:#3880FF;}
                        </style>
                        <g>
                            <g id="icon">
                                <path id="Shape" class="st0" d="M127,279.6c-25.5,0-46.2,20.7-46.2,46.2s20.7,46.2,46.2,46.2s46.2-20.7,46.2-46.2
                                    C173.1,300.2,152.4,279.6,127,279.6z"/>
                                <circle id="Oval" class="st0" cx="193.2" cy="262.6" r="21.1"/>
                                <path id="Shape_1_" class="st0" d="M219.1,283.7l-0.8-1.9l-1.4,1.7c-3.4,3.9-7.9,6.9-12.7,8.7l-1.4,0.6l0.6,1.4
                                    c4.3,10.1,6.3,20.8,6.3,31.7c0,45.6-37.1,82.8-82.8,82.8s-82.7-37.2-82.7-82.8s37.1-82.8,82.8-82.8c12.4,0,24.2,2.8,35.4,8
                                    l1.2,0.6l0.6-1.4c2.1-4.8,5.2-9,9.4-12.3l1.7-1.4l-1.9-1c-14.5-7.4-30-11.3-46.4-11.3c-55.8,0-101.3,45.5-101.3,101.3
                                    s45.5,101.3,101.3,101.3s101.3-45.5,101.3-101.3C228.2,311.1,225.1,297.1,219.1,283.7z"/>
                            </g>
                        </g>
                        </svg>