<?xml version="1.0" encoding="utf-8"?>
<!-- Generator: Adobe Illustrator 23.0.2, SVG Export Plug-In . SVG Version: 6.00 Build 0)  -->
<svg version="1.1" id="Capa_1" xmlns="http://www.w3.org/2000/svg" xmlns:xlink="http://www.w3.org/1999/xlink" x="0px" y="0px"
	 viewBox="0 0 1080 1080" style="enable-background:new 0 0 1080 1080;" xml:space="preserve">
<style type="text/css">
	.st0{fill:#D3734E;}
</style>
<g>
	<g id="logo_III_3_">
		<path class="st0" d="M1080,100L1080,100c0,55.2-42.8,100-95.5,100H602.6V0h381.8C1037.2,0,1080,44.8,1080,100z"/>
		<circle class="st0" cx="100.5" cy="979.5" r="100.5"/>
		<path class="st0" d="M632.6,441.6C703.1,519.4,773.5,597.2,844,675c0.5-2.9-96.9,107-177.6,196.1c-11.2,12.4-22.5,24.8-33.8,37.3
			c-35.3,39-41.4,104.2,0,142.2c38.5,35.3,104.5,41.6,142.2,0c80.7-89.1,161.3-178.1,242-267.2c11.2-12.4,22.5-24.8,33.8-37.3
			c37.8-41.8,38-100.2,0-142.2c-80.7-89.1-161.3-178.1-242-267.2c-11.2-12.4-22.5-24.8-33.8-37.3c-35.4-39.1-106.7-38.7-142.2,0
			C594.3,341.2,594.9,399.9,632.6,441.6L632.6,441.6z"/>
		<path class="st0" d="M632.6,441.6C703.1,519.4,808,597.2,878.5,675c0.5-2.9-131.4,107-212,196.1c-11.2,12.4-22.5,24.8-33.8,37.3
			c-35.3,39-41.4,104.2,0,142.2c38.5,35.3,104.5,41.6,142.2,0c80.7-89.1,161.3-178.1,242-267.2c11.2-12.4,22.5-24.8,33.8-37.3
			c37.8-41.8,38-100.2,0-142.2c-80.7-89.1-161.3-178.1-242-267.2c-11.2-12.4-22.5-24.8-33.8-37.3c-35.4-39.1-106.7-38.7-142.2,0
			C594.3,341.2,594.9,399.9,632.6,441.6L632.6,441.6z"/>
		<path class="st0" d="M540,0H96.4C43.2,0,0,45,0,100.5l0,0C0,156.1,43.2,201,96.4,201h239.9v769.8c0,60.3,41.1,109.2,98.9,109.2
			l0,0c57.8,0,104.7-48.9,104.7-109.2L540,0L540,0z"/>
	</g>
</g>
</svg>
