<?xml version="1.0" standalone="no"?>
<!DOCTYPE svg PUBLIC "-//W3C//DTD SVG 20010904//EN"
 "http://www.w3.org/TR/2001/REC-SVG-20010904/DTD/svg10.dtd">
<svg version="1.0" xmlns="http://www.w3.org/2000/svg"
 width="496.000000pt" height="496.000000pt" viewBox="0 0 496.000000 496.000000"
 preserveAspectRatio="xMidYMid meet">
<metadata>
Created by potrace 1.14, written by Peter Selinger 2001-2017
</metadata>
<g transform="translate(0.000000,496.000000) scale(0.100000,-0.100000)"
fill="#000000" stroke="none">
<path d="M475 3370 c0 -386 -3 -590 -10 -591 -5 -1 -93 -2 -195 -3 l-185 -1 0
-275 0 -275 180 -1 c99 -1 187 -2 195 -3 13 -1 15 -75 15 -606 0 -333 2 -606
5 -606 3 -1 236 -2 518 -3 l512 -1 1 35 c2 144 -1 503 -5 507 -3 3 -85 6 -183
7 l-178 1 0 930 0 930 160 2 c88 1 171 2 185 2 l25 1 -1 267 -2 268 -518 3
-519 2 0 -590z"/>
<path d="M3439 3958 c-1 -2 -2 -123 -3 -270 -1 -233 1 -268 14 -269 8 0 92 -1
186 -1 l172 0 -2 -932 -1 -931 -172 -2 c-95 -1 -179 -2 -186 -2 -9 -1 -12 -60
-13 -268 0 -148 3 -270 7 -273 6 -4 1010 -5 1030 -1 3 0 6 268 7 593 0 326 1
600 1 608 1 13 28 15 191 15 163 0 190 2 191 15 4 64 0 520 -4 527 -3 5 -87 8
-187 8 -149 0 -183 2 -188 14 -3 7 -6 273 -6 590 l-1 576 -517 3 c-285 1 -519
1 -519 0z"/>
<path d="M2484 3568 c-26 -79 -74 -219 -106 -313 -32 -93 -79 -228 -103 -300
-24 -71 -92 -269 -150 -440 -59 -170 -138 -402 -177 -515 -140 -413 -207 -606
-227 -664 -12 -33 -21 -61 -21 -63 0 -2 163 -2 362 -1 l362 3 39 115 c22 63
70 205 107 315 38 110 130 380 205 600 75 220 145 425 155 455 10 30 55 161
99 290 160 473 221 652 221 656 0 2 -162 4 -359 4 l-359 0 -48 -142z"/>
</g>
</svg>
